<?xml version="1.0" standalone="no"?>
<!DOCTYPE svg PUBLIC "-//W3C//DTD SVG 20010904//EN"
 "http://www.w3.org/TR/2001/REC-SVG-20010904/DTD/svg10.dtd">
<svg version="1.0" xmlns="http://www.w3.org/2000/svg"
 width="16.000000pt" height="16.000000pt" viewBox="0 0 16.000000 16.000000"
 preserveAspectRatio="xMidYMid meet">
<metadata>
Created by potrace 1.11, written by Peter Selinger 2001-2013
</metadata>
<g transform="translate(0.000000,16.000000) scale(0.003125,-0.003125)"
fill="#000000" stroke="none">
<path d="M2330 5109 c-205 -19 -462 -77 -645 -144 -131 -48 -377 -169 -489
-240 -214 -135 -465 -357 -620 -549 -165 -202 -333 -498 -421 -740 -95 -260
-155 -598 -155 -876 0 -278 60 -616 155 -876 54 -148 185 -407 271 -535 198
-297 472 -566 770 -754 112 -71 358 -192 489 -240 335 -123 741 -177 1090
-145 334 31 609 108 910 255 262 128 440 253 652 459 228 221 376 423 513 700
94 190 139 311 185 490 113 445 113 847 0 1292 -46 179 -91 300 -185 490 -137
277 -285 479 -513 700 -212 206 -390 331 -652 459 -182 89 -308 136 -480 180
-296 75 -595 101 -875 74z m-397 -1554 c169 -36 307 -160 357 -324 19 -59 20
-94 20 -557 l0 -494 -497 0 -498 0 0 -312 0 -313 -237 -3 -238 -2 0 1010 0
1010 513 0 c406 0 526 -3 580 -15z m2028 -12 c176 -67 296 -215 320 -398 6
-51 9 -283 7 -640 -4 -539 -4 -562 -25 -622 -42 -125 -121 -216 -237 -273
-116 -57 -146 -60 -763 -60 l-563 0 0 1010 0 1011 603 -3 c586 -3 603 -4 658
-25z"/>
<path d="M1320 3086 c0 -3 0 -108 -1 -233 l0 -228 258 0 258 0 0 170 c0 157
-2 173 -23 212 -38 72 -58 78 -289 81 -112 2 -203 1 -203 -2z"/>
<path d="M3177 3083 c-4 -3 -7 -66 -7 -140 l0 -133 321 0 321 0 -4 73 c-5 115
-48 178 -134 197 -45 11 -487 13 -497 3z"/>
<path d="M3170 2179 l0 -150 278 3 c249 3 281 5 306 21 42 28 56 73 56 182 l0
95 -320 0 -320 0 0 -151z"/>
</g>
</svg>
